<svg xmlns="http://www.w3.org/2000/svg" width="1200" height="630" viewBox="0 0 1200 630">
  <defs>
    <linearGradient id="bg" x1="0" y1="0" x2="1" y2="1">
      <stop offset="0%" stop-color="#0f3070"/>
      <stop offset="100%" stop-color="#1a4fa0"/>
    </linearGradient>
  </defs>

  <!-- Background -->
  <rect width="1200" height="630" fill="url(#bg)"/>

  <!-- Subtle grid -->
  <g opacity="0.06" stroke="#ffffff" stroke-width="1">
    <line x1="0" y1="0" x2="0" y2="630"/><line x1="40" y1="0" x2="40" y2="630"/>
    <line x1="80" y1="0" x2="80" y2="630"/><line x1="120" y1="0" x2="120" y2="630"/>
    <line x1="160" y1="0" x2="160" y2="630"/><line x1="200" y1="0" x2="200" y2="630"/>
    <line x1="240" y1="0" x2="240" y2="630"/><line x1="280" y1="0" x2="280" y2="630"/>
    <line x1="320" y1="0" x2="320" y2="630"/><line x1="360" y1="0" x2="360" y2="630"/>
    <line x1="400" y1="0" x2="400" y2="630"/><line x1="440" y1="0" x2="440" y2="630"/>
    <line x1="480" y1="0" x2="480" y2="630"/><line x1="520" y1="0" x2="520" y2="630"/>
    <line x1="560" y1="0" x2="560" y2="630"/><line x1="600" y1="0" x2="600" y2="630"/>
    <line x1="640" y1="0" x2="640" y2="630"/><line x1="680" y1="0" x2="680" y2="630"/>
    <line x1="720" y1="0" x2="720" y2="630"/><line x1="760" y1="0" x2="760" y2="630"/>
    <line x1="800" y1="0" x2="800" y2="630"/><line x1="840" y1="0" x2="840" y2="630"/>
    <line x1="880" y1="0" x2="880" y2="630"/><line x1="920" y1="0" x2="920" y2="630"/>
    <line x1="960" y1="0" x2="960" y2="630"/><line x1="1000" y1="0" x2="1000" y2="630"/>
    <line x1="1040" y1="0" x2="1040" y2="630"/><line x1="1080" y1="0" x2="1080" y2="630"/>
    <line x1="1120" y1="0" x2="1120" y2="630"/><line x1="1160" y1="0" x2="1160" y2="630"/>
    <line x1="0" y1="40" x2="1200" y2="40"/><line x1="0" y1="80" x2="1200" y2="80"/>
    <line x1="0" y1="120" x2="1200" y2="120"/><line x1="0" y1="160" x2="1200" y2="160"/>
    <line x1="0" y1="200" x2="1200" y2="200"/><line x1="0" y1="240" x2="1200" y2="240"/>
    <line x1="0" y1="280" x2="1200" y2="280"/><line x1="0" y1="320" x2="1200" y2="320"/>
    <line x1="0" y1="360" x2="1200" y2="360"/><line x1="0" y1="400" x2="1200" y2="400"/>
    <line x1="0" y1="440" x2="1200" y2="440"/><line x1="0" y1="480" x2="1200" y2="480"/>
    <line x1="0" y1="520" x2="1200" y2="520"/><line x1="0" y1="560" x2="1200" y2="560"/>
    <line x1="0" y1="600" x2="1200" y2="600"/>
  </g>

  <!-- Wifi arcs top-right -->
  <g transform="translate(1000,180)" fill="none" stroke="#f0a500" stroke-width="5" stroke-linecap="round" opacity="0.25">
    <path d="M-28.3,-28.3 A40,40 0 0,1 28.3,-28.3"/>
    <path d="M-53,-53 A75,75 0 0,1 53,-53"/>
    <path d="M-77.8,-77.8 A110,110 0 0,1 77.8,-77.8"/>
    <path d="M-102.5,-102.5 A145,145 0 0,1 102.5,-102.5"/>
  </g>
  <circle cx="1000" cy="180" r="8" fill="#f0a500" opacity="0.35"/>

  <!-- Wifi arcs bottom-left -->
  <g transform="translate(180,480)" fill="none" stroke="#f0a500" stroke-width="4" stroke-linecap="round" opacity="0.15">
    <path d="M-21.2,21.2 A30,30 0 0,0 21.2,21.2"/>
    <path d="M-42.4,42.4 A60,60 0 0,0 42.4,42.4"/>
    <path d="M-63.6,63.6 A90,90 0 0,0 63.6,63.6"/>
  </g>

  <!-- Gold accent bar -->
  <rect x="80" y="200" width="6" height="120" fill="#f0a500"/>

  <!-- Title -->
  <text x="110" y="260" fill="#ffffff" font-family="Segoe UI, Arial, sans-serif" font-size="62" font-weight="bold">Business Internet</text>
  <text x="110" y="330" fill="#ffffff" font-family="Segoe UI, Arial, sans-serif" font-size="62" font-weight="bold">Quotes</text>
  <text x="330" y="330" fill="#f0a500" font-family="Segoe UI, Arial, sans-serif" font-size="62" font-weight="bold">— Quick and Easy</text>

  <!-- Subtitle -->
  <text x="112" y="390" fill="rgba(255,255,255,0.8)" font-family="Segoe UI, Arial, sans-serif" font-size="26">Free ISP quotes for your business. No obligation.</text>

  <!-- Bottom accent bar -->
  <rect x="0" y="622" width="1200" height="8" fill="#f0a500"/>

  <!-- Domain -->
  <text x="80" y="600" fill="rgba(255,255,255,0.5)" font-family="Segoe UI, Arial, sans-serif" font-size="18">businessinternetsearch.sdfkjh.com</text>
</svg>
